<?xml version="1.0" ?>
<!-- Uploaded to: SVG Repo, www.svgrepo.com, Generator: SVG Repo Mixer Tools -->
<svg width="800px" height="800px" viewBox="0 0 64 64" enable-background="new 0 0 64 64" id="Filled_Outline_00000087397764462717629230000011401247782193659528_" version="1.1" xml:space="preserve" xmlns="http://www.w3.org/2000/svg" xmlns:xlink="http://www.w3.org/1999/xlink">
<g>
<g>
<path d="M41,17h-0.1c-2.705-1.27-5.714-2-8.9-2s-6.195,0.73-8.9,2H23C10.85,17,1,26.85,1,39v0    c0,12.15,9.85,22,22,22h0.1c2.705,1.27,5.714,2,8.9,2s6.195-0.73,8.9-2H41c12.15,0,22-9.85,22-22v0C63,26.85,53.15,17,41,17z" fill="#FF6D1F"/>
<path d="M21,4L21,4c0,1.657,1.343,3,3,3h0c2.761,0,5,2.239,5,5v3h6v-3c0-6.075-4.925-11-11-11h0    C22.343,1,21,2.343,21,4z" fill="#A69D24"/>
<path d="M23,43L23,43l0,4h6v-4h6l0,4h6v-4h0c3.314,0,6,2.686,6,6v0c0,2.181-1.772,3.951-3.953,3.939    c-0.752-0.004-1.48-0.002-2.047,0.012C39,53,36.836,51,32,51s-7,2-9,2h-2c-2.209,0-4-1.791-4-4v0C17,45.686,19.686,43,23,43z     M17,39h10L17,29V39z M47,29L37,39h10V29z" fill="#732002"/>
</g>
<g>
<path d="M41,42c-0.553,0-1,0.447-1,1v3h-4v-3c0-0.553-0.447-1-1-1h-6c-0.552,0-1,0.447-1,1v3h-4v-3    c0-0.553-0.448-1-1-1c-3.86,0-7,3.141-7,7c0,2.757,2.243,5,5,5h2c0.966,0,1.875-0.345,2.929-0.744C27.404,52.696,29.24,52,32,52    c2.727,0,4.553,0.68,6.02,1.226c1.08,0.401,2.017,0.726,3.006,0.726c0.559-0.015,1.275-0.019,2.016-0.012h0.027    c1.311,0,2.543-0.509,3.475-1.435C47.482,51.57,48,50.325,48,49C48,45.141,44.859,42,41,42z M45.132,51.087    c-0.553,0.55-1.285,0.853-2.062,0.853h-0.016c-0.764-0.007-1.504-0.003-2.078,0.012c-0.568,0.046-1.334-0.256-2.259-0.6    C37.185,50.781,35.087,50,32,50c-3.126,0-5.238,0.801-6.78,1.386C24.314,51.729,23.6,52,23,52h-2c-1.654,0-3-1.346-3-3    c0-2.415,1.721-4.435,4-4.899V47c0,0.553,0.448,1,1,1h6c0.552,0,1-0.447,1-1v-3h4v3c0,0.553,0.447,1,1,1h6c0.553,0,1-0.447,1-1    v-2.899c2.279,0.465,4,2.484,4,4.899C46,49.789,45.691,50.53,45.132,51.087z" fill="#260A04"/>
<path d="M17,40h10c0.404,0,0.769-0.243,0.924-0.617s0.069-0.804-0.217-1.09l-10-10    c-0.287-0.286-0.716-0.373-1.09-0.217C16.244,28.23,16,28.596,16,29v10C16,39.553,16.448,40,17,40z M18,31.414L24.586,38H18    V31.414z" fill="#260A04"/>
<path d="M47.383,28.076c-0.374-0.156-0.804-0.069-1.09,0.217l-10,10c-0.286,0.286-0.372,0.716-0.217,1.09    C36.23,39.757,36.596,40,37,40h10c0.553,0,1-0.447,1-1V29C48,28.596,47.757,28.23,47.383,28.076z M46,38h-6.586L46,31.414V38z" fill="#260A04"/>
<path d="M64,39c0-12.63-10.233-22.911-22.843-22.996c-1.623-0.746-3.351-1.3-5.157-1.633V12    c0-6.617-5.383-12-12-12c-2.206,0-4,1.794-4,4s1.794,4,4,4s4,1.794,4,4v2.371c-1.805,0.333-3.534,0.887-5.157,1.633    C10.233,16.089,0,26.37,0,39c0,12.63,10.233,22.911,22.843,22.996C25.633,63.279,28.733,64,32,64s6.367-0.721,9.157-2.004    C53.767,61.911,64,51.63,64,39z M24,6c-1.103,0-2-0.897-2-2s0.897-2,2-2c5.514,0,10,4.486,10,10v2.095    C33.341,14.035,32.675,14,32,14s-1.341,0.035-2,0.095V12C30,8.691,27.309,6,24,6z M45.218,59.574C50.547,55.555,54,49.174,54,42    h-2c0,11.028-8.972,20-20,20c-11.028,0-20-8.972-20-20h-2c0,7.174,3.453,13.555,8.782,17.574C9.217,57.616,2,49.135,2,39    s7.217-18.616,16.782-20.574C13.453,22.445,10,28.826,10,36h2c0-11.028,8.972-20,20-20c11.028,0,20,8.972,20,20h2    c0-7.174-3.453-13.555-8.782-17.574C54.782,20.384,62,28.865,62,39S54.782,57.616,45.218,59.574z" fill="#260A04"/>
</g>
</g>
</svg>